<?xml version="1.0" encoding="UTF-8"?>
<svg id="Layer_1" data-name="Layer 1" xmlns="http://www.w3.org/2000/svg" version="1.1" viewBox="0 0 80 80">
  <defs>
    <style>
      .cls-1 {
        fill: #000;
        stroke-width: 0px;
      }
    </style>
  </defs>
  <path class="cls-1" d="M53.7,35.2l-5.1,25.5c2.6-.3,4.5-.5,5.6-.5,1.8,0,2.7,1.2,2.7,3.7-1-.3-2.1-.5-3.2-.5s-2.4,0-3.9.3l-4.7.6c-1.7.2-2.8.3-3.5.3-1.1,0-2-.3-2.4-.8-.5-.5-.8-1.5-.9-3,1,.5,2,.8,3,.8s1.5,0,2.9-.3l5.1-25.6c-1.5.2-2.8.4-3.8.4-1.9,0-2.8-1.1-2.8-3.3.5.4,1.2.5,2,.5s2.4-.2,4.3-.5l3.2-.6c2.3-.4,4-.6,5.2-.6,1.8,0,2.9,1.2,3.2,3.7-.8-.4-1.6-.6-2.4-.6s-2.2,0-3.6.3c-.2,0-.5,0-.9,0h0Z"/>
  <path class="cls-1" d="M24.6,53.5c.3-1.5.4-3.3.4-5.4,0-4.7-.8-10.6-2.5-17.7-.8-3.3-1.5-5.6-2.1-6.8s-1.5-2.2-2.7-3c1.4-1.5,2.6-2.3,3.5-2.3,1.8,0,3.5,2.9,5.1,8.6,2.1,7.5,3.2,14.5,3.2,21,8.9-11.9,13.3-20,13.3-24.4s-.2-1.2-.5-1.8c1.2-.8,2.4-1.2,3.6-1.2s1.7.5,1.7,1.6c0,1.9-1.2,5-3.6,9.2-2.4,4.3-5.8,9.3-10.1,14.9-2.2,3-3.8,4.8-4.8,5.5-.9.7-2.4,1.3-4.5,1.7h0Z"/>
  <path class="cls-1" d="M75,39.6c-.3,32.2-38.5,48.3-61.6,25.8C-.9,51.4-1,27.6,13.1,13.6c23.3-23.1,61.8-6.6,61.9,26h0ZM74.8,39.6C73.7,1.4,22.4-8.5,6.9,26.2c-7.6,17.5,1.1,38.6,18.8,45.9,23.2,9.8,49.2-7.3,49.1-32.5h0Z"/>
</svg>